<svg version="1.1" class="celsius" xmlns="http://www.w3.org/2000/svg" xmlns:xlink="http://www.w3.org/1999/xlink" x="0px" y="0px"
	 viewBox="0 0 512 512" style="enable-background:new 0 0 512 512;" xml:space="preserve">

<path d="M176,356.9V112c0-8.8-7.2-16-16-16s-16,7.2-16,16v244.9c-9.4,5.6-16,15.4-16,27.1c0,17.6,14.4,32,32,32s32-14.4,32-32
	C192,372.3,185.4,362.5,176,356.9L176,356.9z"/>
<path class="yellow" d="M416,256c-17.6,0-32-14.4-32-32v-96c0-17.6,14.4-32,32-32s32,14.4,32,32h32c0-35.3-28.7-64-64-64
	c-35.3,0-64,28.7-64,64v96c0,35.3,28.7,64,64,64c35.3,0,64-28.7,64-64h-32C448,241.6,433.6,256,416,256L416,256z"/>
<path d="M256,96c0-52.9-43.1-96-96-96S64,43.1,64,96v203.5c-20.7,23.4-32,53.2-32,84.5c0,70.6,57.4,128,128,128s128-57.4,128-128
	c0-31.3-11.3-61.1-32-84.5V96z M160,480c-52.9,0-96-43.1-96-96c0-25.1,9.7-48.9,27.4-67l4.6-4.7V96c0-35.3,28.7-64,64-64
	c35.3,0,64,28.7,64,64v216.3l4.6,4.7c17.7,18.1,27.4,41.9,27.4,67C256,436.9,212.9,480,160,480L160,480z"/>
</svg>
