<svg version="1.1" class="computing" xmlns="http://www.w3.org/2000/svg" xmlns:xlink="http://www.w3.org/1999/xlink" x="0px" y="0px"
	 viewBox="0 0 419.7 634.9" style="enable-background:new 0 0 419.7 634.9;" xml:space="preserve">

<path d="M51.7,340.9c2.6,0,5.2-1.1,7.1-2.9c1.9-1.9,2.9-4.4,2.9-7.1c0-2.6-1.1-5.2-2.9-7.1s-4.4-2.9-7.1-2.9c-2.6,0-5.2,1.1-7.1,2.9
	c-1.9,1.9-2.9,4.4-2.9,7.1c0,2.6,1.1,5.2,2.9,7.1C46.4,339.8,49,340.9,51.7,340.9z"/>
<path d="M91.6,340.9c2.6,0,5.2-1.1,7.1-2.9c1.9-1.9,2.9-4.4,2.9-7.1c0-2.6-1.1-5.2-2.9-7.1s-4.4-2.9-7.1-2.9c-2.6,0-5.2,1.1-7.1,2.9
	c-1.9,1.9-2.9,4.4-2.9,7.1c0,2.6,1.1,5.2,2.9,7.1C86.4,339.8,89,340.9,91.6,340.9z"/>
<path d="M147.6,340.9h20c5.5,0,10-4.5,10-10c0-5.5-4.5-10-10-10h-20c-5.5,0-10,4.5-10,10C137.6,336.4,142.1,340.9,147.6,340.9z"/>
<path d="M51.7,448.9c-2.6,0-5.2,1.1-7.1,2.9c-1.9,1.9-2.9,4.4-2.9,7.1c0,2.6,1.1,5.2,2.9,7.1c1.9,1.9,4.4,2.9,7.1,2.9
	s5.2-1.1,7.1-2.9c1.9-1.9,2.9-4.4,2.9-7.1c0-2.6-1.1-5.2-2.9-7.1S54.3,448.9,51.7,448.9z"/>
<path d="M91.6,448.9c-2.6,0-5.2,1.1-7.1,2.9c-1.9,1.9-2.9,4.4-2.9,7.1c0,2.6,1.1,5.2,2.9,7.1c1.9,1.9,4.4,2.9,7.1,2.9
	s5.2-1.1,7.1-2.9c1.9-1.9,2.9-4.4,2.9-7.1c0-2.6-1.1-5.2-2.9-7.1S94.3,448.9,91.6,448.9z"/>
<path d="M51.7,212.9c2.6,0,5.2-1.1,7.1-2.9s2.9-4.4,2.9-7.1s-1.1-5.2-2.9-7.1s-4.4-2.9-7.1-2.9s-5.2,1.1-7.1,2.9
	c-1.9,1.9-2.9,4.4-2.9,7.1s1.1,5.2,2.9,7.1C46.4,211.9,49,212.9,51.7,212.9z"/>
<path d="M91.6,212.9c2.6,0,5.2-1.1,7.1-2.9c1.9-1.9,2.9-4.4,2.9-7.1s-1.1-5.2-2.9-7.1s-4.4-2.9-7.1-2.9s-5.2,1.1-7.1,2.9
	c-1.9,1.9-2.9,4.4-2.9,7.1s1.1,5.2,2.9,7.1C86.4,211.9,89,212.9,91.6,212.9z"/>
<path d="M147.6,212.9h66.6c5.5,0,10-4.5,10-10c0-5.5-4.5-10-10-10h-66.6c-5.5,0-10,4.5-10,10C137.6,208.5,142.1,212.9,147.6,212.9z"
	/>
<path d="M30,512.9h46.9c3.3-5.4,6.4-10.9,9.6-16.3c0.7-1.2,1.4-2.4,2.1-3.7H30c-5.5,0-10-4.5-10-10v-48c0-5.5,4.5-10,10-10h100.3
	c4.4-6.6,8.8-13.3,13-20H48v-20h107.6c4.1-6.9,8.5-13.5,13.2-20H30c-5.5,0-10-4.5-10-10v-48c0-5.5,4.5-10,10-10h206.3
	c6-4.7,12.1-9.3,18.2-14c0.2-0.2,0.5-0.4,0.7-0.6c-4.4-3.1-9.6-5-15.2-5.4v-20.1c15.6-1,28-14.1,28-29.9v-48c0-16.5-13.5-30-30-30
	H30c-16.5,0-30,13.5-30,30v48c0,15.9,12.4,28.9,28,29.9V277c-15.6,1-28,14.1-28,29.9v48c0,15.9,12.4,28.9,28,29.9V405
	C12.4,406,0,419,0,434.9v48C0,499.4,13.5,512.9,30,512.9z M219.9,276.9H48v-20h171.9V276.9z M20,226.9v-48c0-5.5,4.5-10,10-10h207.9
	c5.5,0,10,4.5,10,10v48c0,5.5-4.5,10-10,10H30C24.5,236.9,20,232.4,20,226.9z"/>
<g>
	<path class="black" d="M252.2,301.3c-2.5,0-4.8,1.2-6.2,3.3c-4.1,6-100.1,146.7-100.1,217.8c0,58.6,47.7,106.3,106.3,106.3
		S358.5,581,358.5,522.4c0-71.2-96.1-211.9-100.1-217.8C257,302.5,254.7,301.3,252.2,301.3L252.2,301.3z M252.2,613.7
		c-50.4,0-91.3-41-91.3-91.3c0-56.6,69.9-167.4,91.3-200.1c21.5,32.7,91.3,143.5,91.3,200.1C343.5,572.7,302.6,613.7,252.2,613.7z"
		/>
	<path class="black" d="M244.7,586.2c0,4.1,3.4,7.5,7.5,7.5c39.3,0,71.3-32,71.3-71.3c0-4.1-3.4-7.5-7.5-7.5s-7.5,3.4-7.5,7.5
		c0,31.1-25.3,56.3-56.3,56.3C248.1,578.7,244.7,582.1,244.7,586.2z"/>
	<path class="yellow" d="M399.3,331.7h-14.6v-14.6c0-4.1-3.4-7.5-7.5-7.5s-7.5,3.4-7.5,7.5v14.6h-14.6c-4.1,0-7.5,3.4-7.5,7.5s3.4,7.5,7.5,7.5h14.6
		v14.6c0,4.1,3.4,7.5,7.5,7.5s7.5-3.4,7.5-7.5v-14.6h14.6c4.1,0,7.5-3.4,7.5-7.5S403.4,331.7,399.3,331.7z"/>
	<path class="yellow" d="M128.4,557.5h-14.6v-14.6c0-4.1-3.4-7.5-7.5-7.5c-4.1,0-7.5,3.4-7.5,7.5v14.6H84.3c-4.1,0-7.5,3.4-7.5,7.5
		c0,4.1,3.4,7.5,7.5,7.5h14.6v14.6c0,4.1,3.4,7.5,7.5,7.5c4.1,0,7.5-3.4,7.5-7.5v-14.6h14.6c4.1,0,7.5-3.4,7.5-7.5
		C135.9,560.8,132.6,557.5,128.4,557.5z"/>
</g>
</svg>
