<svg version="1.1" xmlns="http://www.w3.org/2000/svg" xmlns:xlink="http://www.w3.org/1999/xlink" x="0px" y="0px"
	 viewBox="0 0 512 512" style="enable-background:new 0 0 512 512;" xml:space="preserve">
<g>
	<g>
		<path d="M405.9,180.4c-2.3-3.5-5.8-5.8-10.5-5.8h-86.1l73.3-158.3c1.2-3.5,1.2-8.1-1.2-11.6c-2.3-3.5-5.8-4.7-9.3-4.7h-128
			c-7,0-11.6,4.7-11.6,11.6s4.7,11.6,11.6,11.6h109.4l-73.3,158.3c-1.2,3.5-1.2,8.1,1.2,11.6c2.3,3.5,5.8,4.7,9.3,4.7h82.6
			L209.2,443.3l34.9-161.7c1.2-3.5,0-7-2.3-9.3c-2.3-3.5-5.8-4.7-9.3-4.7H131.2l78-252.5c2.3-5.8-1.2-12.8-8.1-14
			c-5.8-2.3-12.8,1.2-14,8.1l-81.5,267.6c-1.2,2.3-1.2,5.8,1.2,9.3c2.3,2.3,5.8,4.7,9.3,4.7h102.4L174.3,498
			c-1.2,5.8,1.2,10.5,7,12.8c1.2,1.2,3.5,1.2,4.7,1.2c3.5,0,7-2.3,9.3-4.7l209.5-314.2C407,188.5,408.2,185,405.9,180.4z"/>
	</g>
</g>
<g>
	<g>
		<path d="M212.7,105.9c-5.8-2.3-12.8,1.2-14,7l-34.9,104.7c-2.3,5.8,1.2,12.8,7,15.1c1.2,0,2.3,1.2,3.5,1.2c4.7,0,9.3-3.5,10.5-8.1
			L219.7,121C222,115.2,218.5,108.2,212.7,105.9z"/>
	</g>
</g>
</svg>
