<svg version="1.1" class="left-arrow-black" xmlns="http://www.w3.org/2000/svg" xmlns:xlink="http://www.w3.org/1999/xlink" x="0px" y="0px"
	 viewBox="0 0 60 60" style="enable-background:new 0 0 60 60;" xml:space="preserve">
<g>
	<path d="M51,29.5H15.4l10.3-10.3c0.4-0.4,0.4-1,0-1.4s-1-0.4-1.4,0l-12,12c-0.1,0.1-0.2,0.2-0.2,0.3c-0.1,0.2-0.1,0.5,0,0.8
		c0.1,0.1,0.1,0.2,0.2,0.3l12,12c0.2,0.2,0.5,0.3,0.7,0.3s0.5-0.1,0.7-0.3c0.4-0.4,0.4-1,0-1.4L15.4,31.5H51c0.6,0,1-0.4,1-1
		S51.6,29.5,51,29.5z"/>
</g>
</svg>
