<svg version="1.1" class="light-builb" xmlns="http://www.w3.org/2000/svg" xmlns:xlink="http://www.w3.org/1999/xlink" x="0px" y="0px"
	 viewBox="0 0 512 512" style="enable-background:new 0 0 512 512;" xml:space="preserve">

<path d="M451,150h61v30h-61V150z"/>
<path d="M0,150h61v30H0V150z"/>
<path d="M484.3,279.5l-15,26l-52-30l15-26L484.3,279.5z"/>
<path d="M79.6,80.5l-52-30l15-26l52,30L79.6,80.5z"/>
<path d="M417.4,54.5l52-30l15,26l-52,30L417.4,54.5z"/>
<path d="M42.7,305.5l-15-26l52-30l15,26L42.7,305.5z"/>
<path d="M220.6,3.7C155.8,17.2,104.8,70.3,93.5,135.9c-13,75.5,25.6,144.2,87.5,175.9V362h-30v30h30v30h-30v30h60v60h90v-60h60v-30
	h-30v-30h30v-30h-30v-50.2c55-28.1,90-84.7,90-146.8C421,61,325.8-18.3,220.6,3.7z M271,482h-30v-30h30V482z M301,422h-90v-30h90
	V422z M310,288.6l-9,3.9V362h-90v-69.5l-9-3.9c-57.1-25-89.6-85.7-78.9-147.6c9.2-53.5,50.9-96.9,103.7-107.9
	C313.1,15,391,79.8,391,165C391,218.5,359.2,267,310,288.6z"/>
<path class="yellow" d="M297.7,99.4l-23.4-18.7L194.8,180h60l-40.5,50.6l23.4,18.7l79.5-99.4h-60L297.7,99.4z"/>
</svg>
