<svg version="1.1"  xmlns="http://www.w3.org/2000/svg" xmlns:xlink="http://www.w3.org/1999/xlink" x="0px" y="0px"
	 viewBox="0 0 544 512" style="enable-background:new 0 0 544 512;" xml:space="preserve">
<style type="text/css">
	.st0{stroke:#000000;stroke-width:5;stroke-miterlimit:10;}
</style>
<g>
	<g>
		<g>
			<path d="M237.3,117.5h-12.2V34.7c0-19.1-15.6-34.7-34.7-34.7s-34.7,15.6-34.7,34.7v82.8h-39.3V34.7C116.3,15.6,100.8,0,81.6,0
				S46.9,15.6,46.9,34.7v82.8H34.7c-13.3,0-24.2,10.9-24.2,24.2v115.2c0,26.4,13.6,51.3,35.5,64.9c16.2,10.1,25.9,27.4,25.9,46.5
				v1.2c0,28.6,23.1,51.9,51.6,52.2v24c0,5.9,4.8,10.7,10.7,10.7s10.7-4.8,10.7-10.7v-24h2.9c28.8,0,52.2-23.4,52.2-52.2v-0.7
				c0-12.8,4.4-25,11.9-34.6c1.4-1.7,2.4-2.8,4.1-4.6c2.8-2.8,6-5.4,9.4-7.5c22.5-14,36-38.1,36-64.6V141.7
				C261.5,128.3,250.6,117.5,237.3,117.5z M177,34.7c0-7.4,6-13.3,13.3-13.3s13.3,6,13.3,13.3v82.8H177V34.7L177,34.7z M68.3,34.7
				c0-7.4,6-13.3,13.3-13.3S95,27.3,95,34.7v82.8H68.3V34.7L68.3,34.7z M240.1,257.5c0,19.1-9.7,36.4-25.9,46.5
				c-4.8,3-9.3,6.6-13.2,10.5h-59.3c-5.9,0-10.7,4.8-10.7,10.7s4.8,10.7,10.7,10.7h44.4c-4.8,10.2-7.4,21.5-7.4,33v0.7
				c0,17-13.9,30.9-30.9,30.9h-23.7c-17,0-30.9-13.9-30.9-30.9v-1.2c0-26.5-13.4-50.7-36-64.6C41.6,294,31.9,276,31.9,256.9V141.7
				c0-1.6,1.3-2.8,2.8-2.8h202.6c1.6,0,2.8,1.3,2.8,2.8V257.5L240.1,257.5z"/>
			<path d="M172,163.5c-4.2-4.2-10.9-4.2-15.1,0l-57,57c-3.1,3.1-4,7.6-2.3,11.6s5.5,6.6,9.9,6.6h31.2L101.4,276
				c-4.2,4.2-4.2,10.9,0,15.1c2.1,2.1,4.8,3.1,7.6,3.1s5.5-1,7.6-3.1l55.5-55.5c3.1-3.1,4-7.6,2.3-11.6s-5.5-6.6-9.9-6.6h-31.2
				l38.7-38.7C176.2,174.4,176.2,167.7,172,163.5z"/>
			<path d="M134.2,472.8c-5.9,0-10.7,4.8-10.7,10.7v17.8c0,5.9,4.8,10.7,10.7,10.7s10.7-4.8,10.7-10.7v-17.8
				C144.9,477.6,140.1,472.8,134.2,472.8z"/>
		</g>
		<g>
			<path class="st0" d="M383.4,182.6c-2.5,0-4.8,1.2-6.2,3.3c-4.1,6-100.1,146.7-100.1,217.8c0,58.6,47.7,106.3,106.3,106.3
				s106.3-47.7,106.3-106.3c0-71.2-96.1-211.9-100.1-217.8C388.1,183.8,385.8,182.6,383.4,182.6L383.4,182.6z M383.4,495
				c-50.4,0-91.3-41-91.3-91.3c0-56.6,69.9-167.4,91.3-200.1c21.5,32.7,91.3,143.5,91.3,200.1C474.7,454,433.7,495,383.4,495z"/>
			<path class="st0" d="M375.9,467.5c0,4.1,3.4,7.5,7.5,7.5c39.3,0,71.3-32,71.3-71.3c0-4.1-3.4-7.5-7.5-7.5s-7.5,3.4-7.5,7.5
				c0,31.1-25.3,56.3-56.3,56.3C379.2,460,375.9,463.4,375.9,467.5z"/>
			<path d="M530.4,213h-14.6v-14.6c0-4.1-3.4-7.5-7.5-7.5s-7.5,3.4-7.5,7.5V213h-14.6c-4.1,0-7.5,3.4-7.5,7.5s3.4,7.5,7.5,7.5h14.6
				v14.6c0,4.1,3.4,7.5,7.5,7.5c4.1,0,7.5-3.4,7.5-7.5V228h14.6c4.1,0,7.5-3.4,7.5-7.5S534.6,213,530.4,213z"/>
			<path d="M259.6,438.8H245v-14.6c0-4.1-3.4-7.5-7.5-7.5s-7.5,3.4-7.5,7.5v14.6h-14.6c-4.1,0-7.5,3.4-7.5,7.5s3.4,7.5,7.5,7.5H230
				v14.6c0,4.1,3.4,7.5,7.5,7.5s7.5-3.4,7.5-7.5v-14.6h14.6c4.1,0,7.5-3.4,7.5-7.5S263.7,438.8,259.6,438.8z"/>
		</g>
	</g>
</g>
</svg>
