<svg version="1.1" class="right-arrow-black" xmlns="http://www.w3.org/2000/svg" xmlns:xlink="http://www.w3.org/1999/xlink" x="0px" y="0px"
	 viewBox="0 0 60 60" style="enable-background:new 0 0 60 60;" xml:space="preserve">
<g>
	<path d="M13,31.5h35.6L38.3,41.8c-0.4,0.4-0.4,1,0,1.4c0.4,0.4,1,0.4,1.4,0l12-12c0.1-0.1,0.2-0.2,0.2-0.3c0.1-0.2,0.1-0.5,0-0.8
		c-0.1-0.1-0.1-0.2-0.2-0.3l-12-12c-0.2-0.2-0.5-0.3-0.7-0.3s-0.5,0.1-0.7,0.3c-0.4,0.4-0.4,1,0,1.4l10.3,10.3H13c-0.6,0-1,0.4-1,1
		C12,31.1,12.4,31.5,13,31.5z"/>
</g>
</svg>
