<svg version="1.1"  xmlns="http://www.w3.org/2000/svg" xmlns:xlink="http://www.w3.org/1999/xlink" x="0px" y="0px"
	 viewBox="0 0 512 512" style="enable-background:new 0 0 512 512;" xml:space="preserve">
<path id="XMLID_449_" d="M298.2,263.8c80.5,0,145.9-59.2,145.9-131.9S378.7,0,298.2,0c-0.3,0-0.6,0-0.9,0H178.1c0,0,0,0,0,0
	c-14.2,0-25.7,10.4-25.7,23.3v0v217.2v69.8h-25.7c-14.2,0-25.7,10.4-25.7,23.3s11.5,23.3,25.7,23.3h25.7v131.9
	c0,12.9,11.5,23.3,25.7,23.3s25.7-10.4,25.7-23.3V356.8h94.4c14.2,0,25.7-10.4,25.7-23.3s-11.5-23.3-25.7-23.3h-94.4v-46.5H298.2z
	 M298.2,46.6c0.3,0,0.6,0,0.8,0c51.7,0.4,93.6,38.5,93.6,85.3c0,47.1-42.4,85.3-94.4,85.3h-94.4V46.6H298.2z"/>
</svg>
