<svg version="1.1" xmlns="http://www.w3.org/2000/svg" xmlns:xlink="http://www.w3.org/1999/xlink" x="0px" y="0px"
	 viewBox="0 0 258.1 258.1" style="enable-background:new 0 0 258.1 258.1;" xml:space="preserve">
<style type="text/css">
	.st0{fill:#030303;}
</style>
<g>
	<path class="st0" d="M85.3,110.8H48.8v36.6h36.6V110.8z M73.6,135.6H60.5v-13.1h13.1V135.6z"/>
	<path class="st0" d="M85.3,192.9H48.8v36.6h36.6V192.9z M73.6,217.8H60.5v-13.1h13.1V217.8z"/>
	<path class="st0" d="M48.8,65.2h36.6V28.6H48.8V65.2z M60.5,40.4h13.1v13.1H60.5V40.4z"/>
	<path class="st0" d="M6.1,0v82.1v11.7v70.4V176v82.1H252V176v-11.7V93.8V82.1V0H6.1z M240.3,246.4H17.8V176h222.5V246.4z
		 M240.3,164.3H17.8V93.8h222.5V164.3z M17.8,82.1V11.7h222.5v70.4L17.8,82.1L17.8,82.1z"/>
</g>
</svg>
